<svg xmlns="http://www.w3.org/2000/svg" width="24" height="24" viewBox="0 0 24 24"><g transform="translate(-338 -286)"><rect width="24" height="24" transform="translate(338 286)" fill="rgba(0,0,0,0)"/><path d="M350,308a10,10,0,1,1,10-10A10.011,10.011,0,0,1,350,308Zm-2.741-16.23h0a10,10,0,0,1-5.209,5.369,7.9,7.9,0,0,0-.05.86,8,8,0,1,0,15.67-2.26,9.8,9.8,0,0,1-2.25.26,10.014,10.014,0,0,1-8.16-4.23Zm5.74,8.48a1.25,1.25,0,1,1,1.25-1.25A1.252,1.252,0,0,1,353,300.25Zm-6,0A1.25,1.25,0,1,1,348.25,299,1.252,1.252,0,0,1,347,300.25Z" fill="#e97f8a"/></g></svg>