<?xml version="1.0" encoding="UTF-8"?><svg id="b" xmlns="http://www.w3.org/2000/svg" viewBox="0 0 872.8 154.4"><defs><style>.d{fill:#fff;}</style></defs><g id="c"><g><g><path class="d" d="M154.4,15.6c-1.1-1.5-2.4-2.9-3.7-4.2-3.7-3.6-8.1-6.4-13.2-8.4-3.4-1.3-6.9-2.2-10.7-2.7-1.9-.2-3.9-.4-6-.4s-4.1,.1-6,.4c-3.8,.5-7.4,1.3-10.7,2.7-5.1,2-9.4,4.8-13.1,8.4-.3,.3-.6,.6-.9,.9-3.2,3.4-5.8,7.3-7.7,11.7-2.1,4.8-3.1,10-3.1,15.5s1,10.7,3.1,15.6c2.1,4.8,4.9,9,8.5,12.6,3.6,3.6,8,6.4,13.1,8.4,5.1,2,10.6,3,16.7,3s11.6-1,16.7-3c5.1-2,9.5-4.8,13.2-8.4,3.7-3.6,6.5-7.8,8.6-12.6,2.1-4.8,3.1-10,3.1-15.6s-1-10.7-3.1-15.5c-1.3-3-2.9-5.8-4.9-8.4ZM104.5,4c3.2-1.3,6.8-2.2,10.5-2.6,2-.2,3.9-.4,5.9-.4s3.9,.1,5.8,.4c3.7,.4,7.2,1.3,10.5,2.6,5,2,9.3,4.7,12.8,8.2l1,.9c1,1.1-.3,2.9-2.9,3.9l-8.3,3.6c-2.3,1.5-6,1.4-8.2-.2l-2.3-.9c-2.7-1.1-5.5-1.6-8.5-1.6s-5.8,.5-8.5,1.6l-1.3,.5c-1.4,.8-4.3,0-6.4-1.7l-8.1-4.3c-2.5-1.2-2.7-3.5-.6-5.2,0,0,3.7-2.9,8.5-4.8Zm35.8,43.8c-1.1,2.5-2.7,4.7-4.6,6.6-2,1.9-4.2,3.3-6.8,4.3-2.6,1-5.3,1.5-8.1,1.5s-5.5-.5-8.1-1.5c-2.6-1-4.8-2.5-6.7-4.3-1.9-1.9-3.4-4-4.6-6.6-1.1-2.5-1.7-5.3-1.7-8.2s.6-5.7,1.7-8.2c1.1-2.5,2.6-4.7,4.6-6.6,.7-.7,1.5-1.3,2.3-1.9,1.3-1,2.8-1.8,4.4-2.4,2.5-1,5.2-1.5,8.1-1.5s5.5,.5,8.1,1.5c2.4,1,4.6,2.4,6.5,4.1,0,0,.2,.1,.3,.2,2,1.9,3.5,4,4.6,6.6,1.1,2.5,1.7,5.3,1.7,8.2s-.6,5.7-1.7,8.2Z"/><path class="d" d="M208.3,31.3c-1.6-.5-3.2-1-4.8-1.5-1.6-.5-3.1-1-4.4-1.6-1.3-.6-2.3-1.4-3.1-2.2-.8-.9-1.2-2-1.2-3.3s.6-3,1.8-4.1c.2-.2,.4-.4,.6-.5,1.6-1.2,3.6-1.8,6.2-1.8s4,.4,6.2,1.2c2.1,.8,2.3,.9,2.3,.9,2.2,1.6,5.1,.9,6.4-1.6l3.2-6.3c1.2-2.5,.2-5.4-2.3-6.5,0,0-3-1.4-7.1-2.4-2.1-.5-4.2-.9-6.2-1.2-1.8-.2-3.7-.4-5.4-.4s-3.4,.1-4.9,.4c-2.1,.3-4,.8-5.8,1.4-3.2,1.2-5.9,2.9-8.1,5-2,1.9-3.5,4.2-4.7,6.7-.2,.3-.3,.7-.5,1-1.2,3-1.8,6.4-1.8,10.1s.6,6.8,1.7,9.2c1.2,2.4,2.7,4.4,4.6,6,1.9,1.6,4,2.9,6.5,3.8,2.4,1,4.9,1.8,7.4,2.6,2.1,.7,3.9,1.4,5.4,2,1.5,.6,2.7,1.2,3.6,1.9,.9,.7,1.6,1.5,2,2.3,.4,.8,.6,1.8,.6,2.9,0,1.9-.8,3.5-2.3,5-1.6,1.5-3.9,2.2-7.1,2.2s-5.6-.6-8.4-1.9c-2.8-1.3-4.7-2.7-4.7-2.7-2.2-1.7-5-1.1-6.3,1.3l-3.7,6.9c-1.3,2.4-.3,5.4,2.1,6.7,0,0,12.4,6.2,21.9,6.2s8.7-.6,12.3-1.8c3.6-1.2,6.7-2.9,9.1-5.2,2.5-2.2,4.4-4.9,5.7-8,1.3-3.1,1.9-6.6,1.9-10.4,0-5.7-1.5-10.3-4.4-13.9-2.9-3.5-7.6-6.4-14-8.5Zm-26.2-23.8c2.1-2,4.7-3.7,7.8-4.8,1.7-.6,3.6-1.1,5.6-1.4,1.7-.2,3.2-.3,4.8-.3s3.5,.1,5.3,.4c2,.3,4.1,.6,6.1,1.2,3.6,.9,6,2,6,2,2.5,1.1,3.5,4,2.3,6.5l-2.2,4.3c-1.2,2.5-4,3.3-6,2l-1.9-.7c-2.2-.9-4.4-1.3-6.5-1.3s-5,.7-6.8,2h0c0,.1-2.3-.5-4.9-1.4l-8.4-2.2c-2.7-.5-3.9-2.6-2.6-4.6l1.5-1.5Z"/><path class="d" d="M245.4,41l-11.9,31.3c-1,2.6,.5,4.7,3.2,4.7h10.8c2.8,0,5.7-2.1,6.6-4.7l1.2-3.6c.9-2.6,3.9-4.7,6.6-4.7h17.8c2.8,0,5.7,2.1,6.6,4.7l1.2,3.6c.9,2.6,3.9,4.7,6.6,4.7h10.8c2.8,0,4.2-2.1,3.2-4.7l-21.1-55.4c-1-2.6-2-4.7-2.2-4.7h0c.2,0-.4-2-1.3-4.6l-.3-.8c-1-2.6-4-4.7-6.8-4.7h-11.3c-2.8,0-5.8,2.1-6.8,4.7l-13,34.3m13.7-33.3c1-2.6,4-4.7,6.8-4.7h9.9c2.8,0,5.7,1.8,6.5,4s-.3,5.4-2.5,7c0,0-2.2,1.6-4.2,6.7l-.8,2c-1.1,2.4-2.2,3.6-2.5,2.7s-.8-2.2-1-3-.7-.7-.9,0-1.2,3.5-2.1,6.1l-.9,2.6c-.9,2.6-3.6,5.8-6,7.1,0,0-1.6,.9-5.4,1.6-1.7,.3-3.4,.5-5.1,.5h-1.3c-1.5-.1-1.9-2.4-1-4.9l10.6-27.8Zm19.4,8.8s0,0,0,0c0,0,0,0,0,0Zm-5.8,13l5.2,14.9c.9,2.6-.6,4.7-3.3,4.7h-7.5c-2.8,0-4.3-2.1-3.3-4.7l1.1-3.1c.9-2.6,2.4-6.8,3.3-9.4l1-2.9c.9-2.6,2.1-3.5,2.6-2l.9,2.7"/><path class="d" d="M47.6,26c0,2.8-2.2,5-5,5H24.5c-2.8,0-5-2.2-5-5V7.1c0-2.8-2.2-5-5-5H5C2.2,2.1,0,4.3,0,7.1V72c0,2.8,2.2,5,5,5H14.5c2.8,0,5-2.2,5-5v-20.9c0-2.8,2.2-5,5-5h18.1c2.8,0,5,2.2,5,5v20.9c0,2.8,2.2,5,5,5h9.5c2.8,0,5-2.2,5-5V7.1c0-2.8-2.2-5-5-5h-9.5c-2.8,0-5,2.2-5,5V26Zm1,5.5V8.1c0-2.8,2.2-5,5-5h7.5c2.8,0,5,2.2,5,5v1.6c0,2.8-1.3,6.8-3,9,0,0-.6,.8-2.2,3.6-4.4,7.6-9.5,16.3-27.1,20.2-3.8,.8-7.6,1.2-11.2,1.2-7.7,0-17-3.7-17-3.7-2.6-1-4.6-4.1-4.6-6.9V8.1C1,5.3,3.2,3.1,6,3.1h7.5c2.8,0,5,2.2,5,5V31.5c0,.3,.2,.5,.5,.5h29.1c.3,0,.5-.2,.5-.5Z"/><path class="d" d="M356.8,38.3c-.4-.4,.8-2.5,2.6-4.6l23.3-27.8c1.8-2.1,1-3.8-1.8-3.8h-14c-2.8,0-6.4,1.8-8,4l-17.7,23c-1.7,2.2-3,1.7-3-1V7.1c0-2.8-2.2-5-5-5h-9.5c-2.8,0-5,2.2-5,5V72c0,2.8,2.2,5,5,5h9.5c2.8,0,5-2.2,5-5v-22.5c0-2.8,1.4-3.2,3.1-1.1l19.2,24.6c1.7,2.2,5.3,3.9,8.1,3.9h15.2c2.8,0,3.6-1.7,1.8-3.9l-24.8-30.2c-1.7-2.1-3.5-4.2-3.8-4.6Zm-18.2-4.4c.1-.2,1.6-2.1,3.3-4.3l17.4-22.6c1.7-2.2,5.3-4,8-4h11.4c2.8,0,3.6,1.7,1.8,3.8l-21.9,26.2c-1.8,2.1-3.3,4-3.5,4.2s-.2,.4-.2,.4-2.1-.3-4.8-.8l-6.9-1.4c-2.7-.7-4.7-1.4-4.6-1.5Zm-19-25.8c0-2.8,2.2-5,5-5h7.5c2.8,0,5,2.2,5,5v25.3c0,.2-.8,.2-1.9,0l-.9-.2c-5.2-1.4-9.8-2.4-9.8-2.4-2.7-.6-4.9-3.3-4.9-6.1V8.1Z"/><path class="d" d="M441.7,6.8c-1-2.6-4-4.7-6.8-4.7h-11.3c-2.8,0-5.8,2.1-6.8,4.7l-6.2,16.2c-1,2.6-2.6,6.8-3.6,9.3l-15.2,40c-1,2.6,.5,4.7,3.2,4.7h10.8c2.8,0,5.7-2.1,6.6-4.7l1.2-3.6c.9-2.6,3.9-4.7,6.6-4.7h17.8c2.8,0,5.7,2.1,6.6,4.7l1.2,3.6c.9,2.6,3.9,4.7,6.6,4.7h10.8c2.8,0,4.2-2.1,3.2-4.7l-18.6-48.9c-1-2.6-2.6-6.8-3.6-9.3l-2.8-7.3Zm-24.1,1c1-2.6,4-4.7,6.8-4.7h9.9c2.8,0,5.8,2.1,6.8,4.7l2,5.4c1,2.6-.4,5-3.2,5.4l-24.5,5.8c-2.6,.9-3.9-.5-3-3.1l5.1-13.5Zm8,41.4c-2.8,0-4.3-2.1-3.3-4.7l5.4-15.5c.9-2.6,2.4-2.6,3.3,0l5.4,15.5c.9,2.6-.6,4.7-3.3,4.7h-7.5Z"/><path class="d" d="M552.1,.4c-1.8-.2-3.5-.4-5.3-.4s-3.6,.1-5.3,.4c-3.3,.4-6.5,1.3-9.7,2.6-4.8,2-9,4.7-12.6,8.1-3.6,3.5-6.5,7.6-8.6,12.4-2.2,4.8-3.2,10.1-3.2,15.8s.3,5.5,.8,8.1c.5,2.7,1.4,5.3,2.5,7.8,2.2,4.9,5.1,9.1,8.7,12.6,3.6,3.5,7.8,6.3,12.5,8.2,4.7,2,9.7,2.9,14.9,2.9s5.1-.2,7.7-.7c2.6-.5,3.6-.8,3.6-.8,2.6-.8,5.2-1.7,5.8-1.9s1-2.6,1-5.3v-13.1c0-2.8-1.8-3.6-4-2,0,0-6.6,4.9-12.8,4.9s-5.5-.5-7.9-1.6c-2.5-1.1-4.6-2.5-6.4-4.4-1.5-1.6-2.8-3.4-3.7-5.4-.2-.4-.4-.8-.5-1.2-1-2.5-1.5-5.3-1.5-8.2s.5-5.6,1.5-8.1c1-2.5,2.4-4.7,4.2-6.5,1.8-1.8,3.9-3.3,6.4-4.3s5.2-1.6,8.1-1.6c6.6,0,12.8,5.1,12.8,5.1,2.1,1.7,3.9,.9,3.9-1.8V8.9c0-2.8-2.1-5.8-4.7-6.7,0,0-1.5-.6-4.4-1.2-1.1-.2-2.3-.4-3.5-.6Zm11.5,19.2c0,2.8-1.9,3.7-4.1,2.2,0,0-5.5-3.8-11.6-3.8s-5.9,.6-8.5,1.7c-2.6,1.1-4.9,2.6-6.7,4.5-1.9,1.9-3.4,4.2-4.4,6.8-1.1,2.6-1.6,5.5-1.6,8.5s.5,6,1.6,8.6h0c0,0-2,.5-4.6,.9h-2.3c-.4,0-.8,0-1.3,0-4.3-.2-6.4-.8-6.4-.8-2.6-.8-5.1-3.6-5.5-6.3v-2.5c0-5.6,1.1-10.8,3.1-15.4,2.1-4.7,4.9-8.7,8.4-12.1,3.5-3.4,7.6-6,12.3-7.9,3-1.2,6.2-2.1,9.4-2.5,1.7-.2,3.5-.3,5.2-.3s3.4,.1,5.2,.4c1.3,.2,2.4,.3,3.4,.6,2.6,.6,3.6,.9,3.6,.9,2.6,.9,4.7,3.9,4.7,6.7v10Z"/><path class="d" d="M644.1,50V7.1c0-2.8-2.2-5-5-5h-9.5c-2.8,0-5,2.2-5,5V26c0,2.8-2.2,5-5,5h-18.1c-2.8,0-5-2.2-5-5V7.1c0-2.8-2.2-5-5-5h-9.5c-2.8,0-5,2.2-5,5V72c0,2.8,2.2,5,5,5h9.5c2.8,0,5-2.2,5-5v-20.9c0-2.8,2.2-5,5-5h18.1c2.8,0,5,.7,5,1.5v1.5m0,0v22.9c0,2.8,2.2,5,5,5h9.5c2.8,0,5-2.2,5-5v-22m-18.5-18.5V8.1c0-2.8,2.2-5,5-5h7.5c2.8,0,5,2.2,5,5V44.1c0,2.8-1.4,5-3.2,5.1h-1.5c-4.6,0-7.8-.4-7.8-.4-2.7-.3-5-1-5-1.6v-1.6c0-.3-.2-.5-.5-.5h-7.1c-2.8,0-7.1-.9-9.6-2,0,0-6.2-2.7-11-5.3-6.1-3.3-14.7-6.6-14.7-6.6-2.6-1-4.7-4.1-4.7-6.8V8.1c0-2.8,2.2-5,5-5h7.5c2.8,0,5,2.2,5,5V31.5c0,.3,.2,.5,.5,.5h29.1c.3,0,.5-.2,.5-.5Z"/><path class="d" d="M659.8,42.3v29.7c0,2.8,2.2,5,5,5h9.5c2.8,0,5-2.2,5-5V7.1c0-2.8-2.2-5-5-5h-9.5c-2.8,0-5,2.2-5,5V42.3Zm1-34.3c0-2.8,2.2-5,5-5h7.5c2.8,0,5,2.2,5,5V31.9c0,2.8-1.9,6.2-4.3,7.6l-8.6,4.5c-2.5,1.1-4.6-.3-4.6-3V8.1Z"/><path class="d" d="M709.5,20l-19.9,52.4c-1,2.6,.5,4.7,3.2,4.7h10.8c2.8,0,5.7-2.1,6.6-4.7l1.2-3.6c.9-2.6,3.9-4.7,6.6-4.7h17.8c2.8,0,5.7,2.1,6.6,4.7l1.2,3.6c.9,2.6,3.9,4.7,6.6,4.7h10.8c2.8,0,4.2-2.1,3.2-4.7l-10.8-28.4c-1-2.6-2.6-6.8-3.6-9.3l-10.6-27.8c-1-2.6-4-4.7-6.8-4.7h-11.3c-2.8,0-5.8,2.1-6.8,4.7l-5,13.2m1.6-1c0,0,.6-2.1,1.6-4.7l2.5-6.5c1-2.6,4-4.7,6.8-4.7h9.9c2.8,0,5.8,2.1,6.8,4.7l9.8,25.6c1,2.6,1.5,4.7,1.1,4.6h-.3c-10.9-.5-16-5.9-16-5.9-1.9-2-3.5-3.8-3.7-3.9s-.6-1.2-1-2.3-.9-2.6-1.2-3.3-.7-.7-.9,0-.5,1.5-.6,1.6-1.9-1-4.2-2.6c0,0-3.2-2.3-10.5-2.6h0Zm12.1,30.2c-2.8,0-4.3-2.1-3.3-4.7l4.7-13.5c.9-2.6,1.8-5.2,2-5.7s.7,0,1.1,1.1,1.5,4.2,2.4,6.8l4,11.3c.9,2.6-.6,4.7-3.3,4.7h-7.5Z"/><path class="d" d="M815.4,41.4c-1.7-2.1-1.7-5.6,0-7.7l23.3-27.8c1.8-2.1,1-3.8-1.8-3.8h-14c-2.8,0-6.4,1.8-8,4l-17.7,23c-1.7,2.2-3,1.7-3-1V7.1c0-2.8-2.2-5-5-5h-9.5c-2.8,0-5,2.2-5,5V72c0,2.8,2.2,5,5,5h9.5c2.8,0,5-2.2,5-5v-22.6c0-2.7,1.4-3.2,3.1-1l1.6,2c1.7,2.2,4.5,5.7,6.1,7.9l11.5,14.7c1.7,2.2,5.3,3.9,8.1,3.9h15.2c2.8,0,3.6-1.7,1.8-3.9l-17.9-21.7c-1.7-2.1-4.6-5.6-6.4-7.7l-1.9-2.3Zm-17.4,6.4c-1.7-2.2-3.5-4.5-4-5.1s-.9-.5-.9,.3v5.8c0,2.4-2.2,3.7-4.8,3l-8.1-2.6c-2.5-1.1-4.5-4.3-4.5-7.1V8.1c0-2.8,2.2-5,5-5h7.5c2.8,0,5,2.2,5,5v26.4c0,.8,.4,.9,.9,.3s2.3-3,3.9-5.1l17.4-22.6c1.7-2.2,5.3-4,8-4h11.4c2.8,0,3.6,1.7,1.8,3.8l-21.9,26.2c-1.8,2.1-3.3,4-3.5,4.2s-.1,.5,0,.6,1.7,2.1,3.4,4.2l1.1,1.4c1.7,2.1,2.8,4.1,2.3,4.3s-1.4,.7-2,1-3,1.4-5.3,2.3-9.8,.5-11.5-1.7l-1.2-1.6Z"/><path class="d" d="M858.3,2.1c-2.8,0-5,2.2-5,5V72c0,2.8,2.2,5,5,5h9.5c2.8,0,5-2.2,5-5V7.1c0-2.8-2.2-5-5-5h-9.5Zm-4,6c0-2.8,2.2-5,5-5h7.5c2.8,0,5,2.2,5,5V45.8c0,2.8-2,3.9-4.4,2.6,0,0-.7-.4-3.2-2.2-4.2-3.1-5.5-3.9-5.5-3.9-2.4-1.4-4.3-4.8-4.3-7.5V8.1Z"/></g><g><path class="d" d="M213.2,98.7l3.7,14,4.6-14h4.5l4.6,14,3.7-14h5.9l-6.4,21.6h-5.7l-4.2-12.5-4.2,12.5h-5.7l-6.4-21.6h5.9Z"/><path class="d" d="M254.7,103.5h-6.7v3.6h6.3v4.8h-6.3v3.7h6.7v4.8h-12.3v-21.6h12.3v4.8Z"/><path class="d" d="M258.7,98.7h8.4c2,0,3.5,.5,4.5,1.4,1,1,1.5,2.3,1.5,4.1s-.2,2-.6,2.7c-.4,.7-1,1.3-1.8,1.8,.8,.2,1.5,.4,2,.7,.6,.3,1,.7,1.4,1.2,.4,.5,.6,1,.8,1.5,.2,.6,.2,1.2,.2,1.8,0,1-.2,1.9-.5,2.7-.4,.8-.9,1.4-1.5,2-.6,.5-1.4,.9-2.3,1.2-.9,.3-1.9,.4-3.1,.4h-9v-21.6Zm5.6,8.5h1c1.8,0,2.6-.7,2.6-2.1s-.9-2.1-2.6-2.1h-1v4.2Zm0,8.8h1.2c1.4,0,2.4-.2,3-.5,.6-.4,.9-.9,.9-1.7s-.3-1.4-.9-1.7c-.6-.4-1.6-.5-3-.5h-1.2v4.6Z"/><path class="d" d="M288.3,98.7h8.3c1.5,0,2.9,.3,4.1,.9,1.3,.6,2.4,1.4,3.4,2.4,1,1,1.7,2.1,2.3,3.4s.8,2.7,.8,4.1-.3,2.8-.8,4.1c-.5,1.3-1.3,2.5-2.3,3.5s-2.1,1.8-3.4,2.4c-1.3,.6-2.7,.9-4.2,.9h-8.3v-21.6Zm5.6,16.8h1.3c1,0,1.8-.2,2.6-.5s1.4-.7,1.9-1.3,.9-1.2,1.2-1.9c.3-.7,.4-1.5,.4-2.4s-.1-1.7-.4-2.4-.7-1.4-1.2-1.9-1.2-1-1.9-1.3-1.6-.5-2.6-.5h-1.3v12.1Z"/><path class="d" d="M323.1,103.5h-6.7v3.6h6.3v4.8h-6.3v3.7h6.7v4.8h-12.3v-21.6h12.3v4.8Z"/><path class="d" d="M339,104.3c-.6-.5-1.2-.9-1.8-1.1-.6-.2-1.2-.4-1.8-.4s-1.3,.2-1.8,.5c-.5,.3-.7,.8-.7,1.3s.1,.7,.3,.9c.2,.2,.5,.5,.9,.6,.4,.2,.8,.3,1.3,.5,.5,.1,.9,.3,1.4,.4,1.8,.6,3.2,1.4,4,2.4,.8,1,1.3,2.4,1.3,4s-.2,2.1-.6,3c-.4,.9-.9,1.7-1.6,2.3-.7,.6-1.6,1.1-2.6,1.5-1,.4-2.2,.5-3.5,.5-2.7,0-5.3-.8-7.6-2.4l2.4-4.5c.8,.7,1.7,1.3,2.5,1.7,.8,.4,1.6,.5,2.4,.5s1.6-.2,2-.6c.4-.4,.7-.9,.7-1.4s0-.6-.2-.8c-.1-.2-.3-.5-.6-.7-.3-.2-.6-.4-1-.6s-1-.4-1.6-.6c-.7-.2-1.4-.5-2.1-.8-.7-.3-1.3-.6-1.9-1.1-.5-.5-1-1-1.3-1.7-.3-.7-.5-1.6-.5-2.7s.2-2,.5-2.9c.4-.9,.8-1.6,1.5-2.2,.6-.6,1.4-1.1,2.3-1.4s2-.5,3.1-.5,2.2,.1,3.4,.4,2.3,.7,3.4,1.3l-2.2,4.4Z"/><path class="d" d="M351.3,98.7v21.6h-5.6v-21.6h5.6Z"/><path class="d" d="M366.3,108.2h11.1c0,1.1,0,2.2-.1,3.1s-.3,1.8-.6,2.6c-.4,1.1-.9,2.1-1.6,3-.7,.9-1.5,1.6-2.4,2.2-.9,.6-1.9,1-3.1,1.3-1.1,.3-2.3,.5-3.5,.5s-3.2-.3-4.6-.8c-1.4-.6-2.6-1.3-3.6-2.3-1-1-1.8-2.2-2.3-3.6-.6-1.4-.8-3-.8-4.7s.3-3.2,.8-4.6c.5-1.4,1.3-2.6,2.3-3.6,1-1,2.2-1.8,3.6-2.3,1.4-.6,3-.8,4.7-.8s4.2,.5,5.9,1.5,3,2.5,4,4.5l-5.3,2.2c-.5-1.2-1.1-2-1.9-2.6s-1.7-.8-2.7-.8-1.6,.2-2.3,.5-1.3,.8-1.8,1.3c-.5,.6-.9,1.3-1.1,2.1-.3,.8-.4,1.7-.4,2.8s.1,1.8,.4,2.5c.2,.8,.6,1.5,1.1,2s1.1,1,1.8,1.3c.7,.3,1.5,.5,2.5,.5s1.1,0,1.6-.2c.5-.1,1-.3,1.4-.6,.4-.3,.8-.6,1-1.1,.3-.4,.4-1,.5-1.6h-4.6v-4.4Z"/><path class="d" d="M381,120.3v-21.6h5.6l10.4,13.2v-13.2h5.6v21.6h-5.6l-10.4-13.2v13.2h-5.6Z"/><path class="d" d="M431.2,112.1c1.1-1.1,2.1-2.1,2.8-3.1l3.2,3.1c-.3,.4-.7,.9-1.1,1.3-.4,.4-.9,.9-1.4,1.4l-.4,.4,4.8,5.1h-7l-1.9-2c-2.6,1.7-5.1,2.6-7.4,2.6s-1.9-.2-2.8-.5-1.6-.7-2.2-1.3c-.6-.6-1.1-1.2-1.4-2-.3-.8-.5-1.6-.5-2.5s.1-1.5,.3-2.1c.2-.6,.6-1.2,1.1-1.8,.4-.4,.8-.8,1.3-1.1,.5-.3,1.1-.6,1.8-1l.6-.3-.4-.4c-1.1-1.4-1.7-2.7-1.7-4s.2-1.6,.5-2.3c.3-.7,.8-1.4,1.4-1.9,.6-.5,1.3-.9,2.1-1.2,.8-.3,1.7-.4,2.7-.4s1.9,.1,2.7,.4,1.5,.7,2.1,1.2c.6,.5,1.1,1.2,1.4,1.9s.5,1.5,.5,2.3,0,1.1-.2,1.6c-.1,.5-.4,.9-.7,1.3-.3,.4-.7,.8-1.2,1.2-.5,.4-1.1,.8-1.9,1.1l2.7,2.9Zm-7.5-.8c-1.4,.8-2,1.7-2,2.5s0,.6,.2,.8c.1,.3,.3,.5,.5,.7,.2,.2,.5,.3,.8,.4,.3,.1,.6,.2,1,.2,1,0,1.9-.3,3-.9l-3.4-3.7Zm2.3-4.7c1.3-.8,2-1.7,2-2.7s-.2-1-.5-1.4c-.4-.4-.8-.6-1.4-.6s-.9,.2-1.3,.5c-.3,.3-.5,.8-.5,1.3s.6,1.6,1.7,2.9Z"/><path class="d" d="M466.6,105.9c-1.3-1.6-2.9-2.4-4.8-2.4s-1.6,.2-2.3,.5c-.7,.3-1.3,.7-1.8,1.2-.5,.5-.9,1.2-1.2,1.9-.3,.7-.4,1.5-.4,2.3s.1,1.7,.4,2.4,.7,1.4,1.2,1.9c.5,.5,1.1,1,1.8,1.3,.7,.3,1.5,.5,2.3,.5,1.8,0,3.4-.8,4.8-2.3v6.6l-.6,.2c-.9,.3-1.7,.5-2.4,.7-.7,.1-1.5,.2-2.2,.2-1.5,0-2.9-.3-4.3-.8-1.4-.6-2.6-1.4-3.6-2.4-1-1-1.9-2.2-2.5-3.6-.6-1.4-.9-2.9-.9-4.6s.3-3.2,.9-4.6c.6-1.4,1.5-2.6,2.5-3.6,1-1,2.2-1.8,3.6-2.3,1.4-.6,2.8-.8,4.3-.8s1.7,0,2.5,.3c.8,.2,1.7,.5,2.6,.8v6.7Z"/><path class="d" d="M469.2,109.5c0-1.6,.3-3.1,.9-4.5,.6-1.4,1.4-2.6,2.5-3.6,1.1-1,2.3-1.8,3.8-2.4s3.1-.9,4.8-.9,3.3,.3,4.8,.9,2.7,1.4,3.8,2.4c1.1,1,1.9,2.2,2.5,3.6,.6,1.4,.9,2.9,.9,4.5s-.3,3.1-.9,4.5c-.6,1.4-1.4,2.6-2.5,3.6s-2.3,1.8-3.8,2.4c-1.5,.6-3.1,.9-4.8,.9s-3.4-.3-4.8-.9c-1.5-.6-2.7-1.4-3.8-2.4-1.1-1-1.9-2.2-2.5-3.6-.6-1.4-.9-2.9-.9-4.5Zm5.9,0c0,.9,.2,1.7,.5,2.4,.3,.7,.8,1.4,1.3,1.9s1.2,1,1.9,1.2c.7,.3,1.5,.4,2.3,.4s1.6-.1,2.3-.4c.7-.3,1.4-.7,1.9-1.2s1-1.2,1.3-1.9c.3-.7,.5-1.5,.5-2.4s-.2-1.7-.5-2.4c-.3-.7-.8-1.4-1.3-1.9-.6-.5-1.2-.9-1.9-1.2-.7-.3-1.5-.4-2.3-.4s-1.6,.1-2.3,.4c-.7,.3-1.4,.7-1.9,1.2-.6,.5-1,1.2-1.3,1.9-.3,.7-.5,1.5-.5,2.4Z"/><path class="d" d="M496.7,98.7h8.3c1.5,0,2.9,.3,4.1,.9,1.3,.6,2.4,1.4,3.4,2.4,1,1,1.7,2.1,2.3,3.4s.8,2.7,.8,4.1-.3,2.8-.8,4.1c-.5,1.3-1.3,2.5-2.3,3.5s-2.1,1.8-3.4,2.4c-1.3,.6-2.7,.9-4.2,.9h-8.3v-21.6Zm5.6,16.8h1.3c1,0,1.8-.2,2.6-.5s1.4-.7,1.9-1.3,.9-1.2,1.2-1.9c.3-.7,.4-1.5,.4-2.4s-.1-1.7-.4-2.4c-.3-.7-.7-1.4-1.2-1.9-.5-.5-1.2-1-1.9-1.3s-1.6-.5-2.6-.5h-1.3v12.1Z"/><path class="d" d="M531.5,103.5h-6.7v3.6h6.3v4.8h-6.3v3.7h6.7v4.8h-12.3v-21.6h12.3v4.8Z"/><path class="d" d="M545.1,107.7h5.8v-5.8h3.7v5.8h5.8v3.7h-5.8v5.8h-3.7v-5.8h-5.8v-3.7Z"/><path class="d" d="M573.5,120.3l3.7-21.6h5.6l4.3,11.5,4.3-11.5h5.6l3.7,21.6h-5.6l-1.9-12.4-5.1,12.4h-2.2l-4.8-12.4-1.9,12.4h-5.6Z"/><path class="d" d="M603.2,109.5c0-1.6,.3-3.1,.9-4.5,.6-1.4,1.4-2.6,2.5-3.6,1.1-1,2.3-1.8,3.8-2.4s3.1-.9,4.8-.9,3.3,.3,4.8,.9,2.7,1.4,3.8,2.4c1.1,1,1.9,2.2,2.5,3.6,.6,1.4,.9,2.9,.9,4.5s-.3,3.1-.9,4.5c-.6,1.4-1.4,2.6-2.5,3.6s-2.3,1.8-3.8,2.4c-1.5,.6-3.1,.9-4.8,.9s-3.4-.3-4.8-.9c-1.5-.6-2.7-1.4-3.8-2.4-1.1-1-1.9-2.2-2.5-3.6-.6-1.4-.9-2.9-.9-4.5Zm5.9,0c0,.9,.2,1.7,.5,2.4,.3,.7,.8,1.4,1.3,1.9s1.2,1,1.9,1.2c.7,.3,1.5,.4,2.3,.4s1.6-.1,2.3-.4c.7-.3,1.4-.7,1.9-1.2s1-1.2,1.3-1.9c.3-.7,.5-1.5,.5-2.4s-.2-1.7-.5-2.4c-.3-.7-.8-1.4-1.3-1.9-.6-.5-1.2-.9-1.9-1.2-.7-.3-1.5-.4-2.3-.4s-1.6,.1-2.3,.4c-.7,.3-1.4,.7-1.9,1.2-.6,.5-1,1.2-1.3,1.9-.3,.7-.5,1.5-.5,2.4Z"/><path class="d" d="M648.6,120.3h-7l-5.4-8.3v8.3h-5.6v-21.6h8.7c1.2,0,2.3,.2,3.2,.5,.9,.4,1.6,.8,2.2,1.4,.6,.6,1,1.3,1.3,2.1,.3,.8,.4,1.7,.4,2.6,0,1.6-.4,3-1.2,4-.8,1-2,1.7-3.5,2.1l6.8,8.9Zm-12.3-11.9h1.1c1.1,0,2-.2,2.5-.7s.9-1.1,.9-2-.3-1.5-.9-2c-.6-.5-1.4-.7-2.5-.7h-1.1v5.3Z"/><path class="d" d="M663.3,103.5h-6.7v3.6h6.3v4.8h-6.3v3.7h6.7v4.8h-12.3v-21.6h12.3v4.8Z"/></g><g><path class="d" d="M321.2,153.8h-5.6v-21.6h8.9c2.4,0,4.3,.6,5.6,1.9s1.9,3,1.9,5.3-.6,4.1-1.9,5.3-3.1,1.9-5.6,1.9h-3.3v7.2Zm0-11.7h1.9c2.1,0,3.1-.9,3.1-2.7s-1-2.7-3.1-2.7h-1.9v5.4Z"/><path class="d" d="M334,143c0-1.6,.3-3.1,.9-4.5,.6-1.4,1.4-2.6,2.5-3.6,1.1-1,2.3-1.8,3.8-2.4s3.1-.9,4.8-.9,3.3,.3,4.8,.9c1.5,.6,2.7,1.4,3.8,2.4,1.1,1,1.9,2.2,2.5,3.6,.6,1.4,.9,2.9,.9,4.5s-.3,3.1-.9,4.5c-.6,1.4-1.4,2.6-2.5,3.6s-2.3,1.8-3.8,2.4c-1.5,.6-3.1,.9-4.8,.9s-3.4-.3-4.8-.9c-1.5-.6-2.7-1.4-3.8-2.4-1.1-1-1.9-2.2-2.5-3.6-.6-1.4-.9-2.9-.9-4.5Zm5.9,0c0,.9,.2,1.7,.5,2.4s.8,1.4,1.3,1.9,1.2,1,1.9,1.2c.7,.3,1.5,.4,2.3,.4s1.6-.1,2.3-.4,1.4-.7,1.9-1.2,1-1.2,1.3-1.9,.5-1.5,.5-2.4-.2-1.7-.5-2.4c-.3-.7-.8-1.4-1.3-1.9-.6-.5-1.2-.9-1.9-1.2-.7-.3-1.5-.4-2.3-.4s-1.6,.1-2.3,.4c-.7,.3-1.4,.7-1.9,1.2-.6,.5-1,1.2-1.3,1.9-.3,.7-.5,1.5-.5,2.4Z"/><path class="d" d="M379.5,153.8h-7l-5.4-8.3v8.3h-5.6v-21.6h8.7c1.2,0,2.3,.2,3.2,.5,.9,.4,1.6,.8,2.2,1.4,.6,.6,1,1.3,1.3,2.1,.3,.8,.4,1.7,.4,2.6,0,1.6-.4,3-1.2,4-.8,1-2,1.7-3.5,2.1l6.8,8.9Zm-12.3-11.9h1.1c1.1,0,2-.2,2.6-.7s.9-1.1,.9-2-.3-1.5-.9-2c-.6-.5-1.4-.7-2.6-.7h-1.1v5.3Z"/><path class="d" d="M390,136.9v16.8h-5.6v-16.8h-4.6v-4.8h14.8v4.8h-4.6Z"/><path class="d" d="M409.5,136.9h-6.8v3.6h6.2v4.8h-6.2v8.5h-5.6v-21.6h12.4v4.8Z"/><path class="d" d="M411.9,143c0-1.6,.3-3.1,.9-4.5,.6-1.4,1.4-2.6,2.5-3.6,1.1-1,2.3-1.8,3.8-2.4s3.1-.9,4.8-.9,3.3,.3,4.8,.9,2.7,1.4,3.8,2.4c1.1,1,1.9,2.2,2.5,3.6,.6,1.4,.9,2.9,.9,4.5s-.3,3.1-.9,4.5c-.6,1.4-1.4,2.6-2.5,3.6s-2.3,1.8-3.8,2.4c-1.5,.6-3.1,.9-4.8,.9s-3.4-.3-4.8-.9c-1.5-.6-2.7-1.4-3.8-2.4-1.1-1-1.9-2.2-2.5-3.6-.6-1.4-.9-2.9-.9-4.5Zm5.9,0c0,.9,.2,1.7,.5,2.4s.8,1.4,1.3,1.9,1.2,1,1.9,1.2c.7,.3,1.5,.4,2.3,.4s1.6-.1,2.3-.4c.7-.3,1.4-.7,1.9-1.2s1-1.2,1.3-1.9c.3-.7,.5-1.5,.5-2.4s-.2-1.7-.5-2.4c-.3-.7-.8-1.4-1.3-1.9-.6-.5-1.2-.9-1.9-1.2-.7-.3-1.5-.4-2.3-.4s-1.6,.1-2.3,.4c-.7,.3-1.4,.7-1.9,1.2-.6,.5-1,1.2-1.3,1.9-.3,.7-.5,1.5-.5,2.4Z"/><path class="d" d="M445,132.2v16.8h6.7v4.8h-12.3v-21.6h5.6Z"/><path class="d" d="M460.2,132.2v21.6h-5.6v-21.6h5.6Z"/><path class="d" d="M463.8,143c0-1.6,.3-3.1,.9-4.5,.6-1.4,1.4-2.6,2.5-3.6,1.1-1,2.3-1.8,3.8-2.4s3.1-.9,4.8-.9,3.3,.3,4.8,.9,2.7,1.4,3.8,2.4c1.1,1,1.9,2.2,2.5,3.6,.6,1.4,.9,2.9,.9,4.5s-.3,3.1-.9,4.5c-.6,1.4-1.4,2.6-2.5,3.6s-2.3,1.8-3.8,2.4c-1.5,.6-3.1,.9-4.8,.9s-3.4-.3-4.8-.9c-1.5-.6-2.7-1.4-3.8-2.4-1.1-1-1.9-2.2-2.5-3.6-.6-1.4-.9-2.9-.9-4.5Zm5.9,0c0,.9,.2,1.7,.5,2.4,.3,.7,.8,1.4,1.3,1.9s1.2,1,1.9,1.2c.7,.3,1.5,.4,2.3,.4s1.6-.1,2.3-.4c.7-.3,1.4-.7,1.9-1.2s1-1.2,1.3-1.9c.3-.7,.5-1.5,.5-2.4s-.2-1.7-.5-2.4c-.3-.7-.8-1.4-1.3-1.9-.6-.5-1.2-.9-1.9-1.2-.7-.3-1.5-.4-2.3-.4s-1.6,.1-2.3,.4c-.7,.3-1.4,.7-1.9,1.2-.6,.5-1,1.2-1.3,1.9-.3,.7-.5,1.5-.5,2.4Z"/><path class="d" d="M512.9,137.7c-.6-.5-1.2-.9-1.8-1.1-.6-.2-1.2-.4-1.8-.4s-1.3,.2-1.8,.5c-.5,.3-.7,.8-.7,1.3s.1,.7,.3,.9c.2,.2,.5,.5,.9,.6,.4,.2,.8,.3,1.3,.5,.5,.1,.9,.3,1.4,.4,1.8,.6,3.2,1.4,4,2.4,.8,1,1.3,2.4,1.3,4s-.2,2.1-.6,3c-.4,.9-.9,1.7-1.6,2.3-.7,.6-1.6,1.1-2.6,1.5-1,.4-2.2,.5-3.5,.5-2.7,0-5.3-.8-7.6-2.4l2.4-4.5c.8,.7,1.7,1.3,2.5,1.7,.8,.4,1.6,.5,2.4,.5s1.6-.2,2-.6c.4-.4,.7-.9,.7-1.4s0-.6-.2-.8c-.1-.2-.3-.5-.6-.7-.3-.2-.6-.4-1-.6s-1-.4-1.6-.6c-.7-.2-1.4-.5-2.1-.8-.7-.3-1.3-.6-1.9-1.1-.5-.5-1-1-1.3-1.7-.3-.7-.5-1.6-.5-2.7s.2-2,.5-2.9c.4-.9,.8-1.6,1.5-2.2,.6-.6,1.4-1.1,2.3-1.4s2-.5,3.1-.5,2.2,.1,3.4,.4,2.3,.7,3.4,1.3l-2.2,4.4Z"/><path class="d" d="M525.1,132.2v21.6h-5.6v-21.6h5.6Z"/><path class="d" d="M537.8,136.9v16.8h-5.6v-16.8h-4.6v-4.8h14.8v4.8h-4.6Z"/><path class="d" d="M557.2,136.9h-6.7v3.6h6.3v4.8h-6.3v3.7h6.7v4.8h-12.3v-21.6h12.3v4.8Z"/></g></g></g></svg>